<?xml version="1.0" standalone="no"?>
<!DOCTYPE svg PUBLIC "-//W3C//DTD SVG 20010904//EN"
 "http://www.w3.org/TR/2001/REC-SVG-20010904/DTD/svg10.dtd">
<svg version="1.0" xmlns="http://www.w3.org/2000/svg"
 width="1280.000000pt" height="853.000000pt" viewBox="0 0 1280.000000 853.000000"
 preserveAspectRatio="xMidYMid meet">

<g transform="translate(0.000000,853.000000) scale(0.100000,-0.100000)"
fill="#000000" stroke="none">
<path d="M3648 5769 c-22 -12 -24 -62 -4 -78 8 -6 39 -16 69 -21 243 -39 455
-198 571 -427 32 -65 58 -81 92 -58 31 20 30 43 -5 113 -112 222 -335 400
-578 463 -85 21 -120 23 -145 8z"/>
<path d="M2895 5634 c-323 -60 -630 -250 -827 -512 -102 -135 -185 -321 -224
-499 -23 -107 -23 -329 0 -438 98 -454 398 -796 841 -960 151 -56 274 -77 445
-78 158 0 266 18 435 71 l91 28 84 -38 c59 -26 99 -38 133 -38 87 0 122 50
240 344 21 52 47 96 78 130 49 54 124 166 154 229 13 29 29 42 66 58 57 25
113 83 141 147 16 36 20 60 16 121 -5 82 -31 142 -83 191 -21 20 -25 32 -25
86 0 130 -57 336 -132 472 -37 68 -41 72 -73 72 -25 0 -39 -6 -50 -24 -15 -23
-14 -29 34 -128 28 -56 59 -137 70 -178 20 -77 37 -190 28 -190 -2 0 -18 7
-33 15 -16 8 -45 18 -65 21 -34 6 -37 9 -42 48 -3 23 -9 50 -13 60 -5 12 -1
19 15 23 26 7 26 15 2 37 -12 11 -31 16 -47 14 -26 -3 -32 4 -72 77 -119 216
-285 386 -466 477 l-80 40 -18 -25 c-17 -23 -21 -24 -54 -14 -29 9 -37 8 -45
-4 -15 -24 -10 -33 26 -49 l34 -15 -65 -136 -66 -136 -41 14 c-69 24 -212 28
-287 8 -84 -22 -100 -34 -82 -62 6 -10 19 -9 56 2 67 20 211 19 294 -2 39 -11
58 -19 45 -21 -19 -3 -46 -44 -111 -173 -12 -23 -21 -27 -77 -32 -82 -8 -123
-26 -179 -77 -91 -84 -103 -243 -24 -327 l21 -22 -83 -91 c-45 -49 -86 -90
-90 -90 -11 0 -65 63 -94 108 -33 53 -63 138 -71 202 -12 101 34 253 102 334
13 16 22 35 18 44 -4 11 -1 12 12 6 10 -4 39 -9 65 -12 42 -3 51 -1 78 26 49
50 40 126 -20 157 -89 46 -194 -30 -161 -117 9 -23 5 -31 -31 -70 -80 -85
-124 -220 -116 -359 8 -124 59 -238 149 -335 l29 -30 -67 -55 c-110 -88 -167
-129 -178 -129 -6 0 -27 17 -46 38 -125 132 -188 275 -211 482 -11 99 -10 117
9 212 26 133 72 237 150 343 35 47 63 89 63 94 0 5 -8 12 -17 16 -40 15 -170
-171 -218 -312 -37 -111 -48 -199 -42 -329 8 -180 55 -317 159 -466 37 -53
119 -128 140 -128 5 0 41 -20 79 -45 169 -109 311 -163 460 -173 l91 -7 14
-34 14 -33 -77 7 c-227 20 -357 69 -552 207 -83 59 -83 59 -105 40 -11 -10
-48 -38 -82 -60 l-61 -41 -35 37 c-127 134 -224 331 -262 532 -18 93 -21 280
-6 385 47 326 302 662 622 818 119 58 220 91 333 108 125 19 311 17 412 -5 75
-16 84 -16 112 -1 21 10 31 23 31 38 0 68 -70 88 -320 93 -134 2 -207 -1 -265
-12z m930 -668 l20 -28 -25 -20 c-133 -105 -206 -174 -206 -195 -1 -10 -2 -22
-4 -28 -2 -5 9 -36 24 -67 33 -70 38 -111 13 -116 -10 -2 -20 4 -23 15 -54
161 -69 171 -147 96 -99 -93 -93 -91 -127 -58 -17 16 -30 34 -30 41 0 6 34 40
75 75 59 51 73 68 70 86 -6 24 26 49 55 45 9 -1 31 13 50 33 19 20 70 67 113
106 74 65 80 69 100 56 12 -8 30 -26 42 -41z m74 -113 c24 -21 111 -189 111
-215 0 -13 -8 -18 -29 -18 -26 0 -30 5 -46 53 -9 28 -32 80 -51 114 -19 34
-34 66 -34 72 0 17 25 13 49 -6z m222 -286 c-8 -8 -11 -5 -11 9 0 27 14 41 18
19 2 -9 -1 -22 -7 -28z m-119 -52 c-2 -11 -12 -39 -22 -62 -14 -31 -25 -43
-40 -43 -11 0 -32 -11 -45 -25 -34 -33 -33 -84 1 -124 22 -26 33 -31 70 -31
34 0 51 6 69 25 29 28 34 85 10 105 -20 17 -19 23 12 92 25 57 27 58 44 41 19
-19 163 -398 161 -423 0 -8 -56 -141 -124 -295 -68 -154 -139 -316 -158 -360
-67 -159 -95 -175 -212 -125 -40 18 -145 62 -233 100 -310 132 -315 135 -315
193 0 14 25 83 56 153 31 71 79 181 106 244 119 275 171 386 186 402 15 14
232 102 357 144 55 18 81 14 77 -11z m-817 -9 c83 -35 73 -141 -17 -175 -55
-21 -118 25 -118 85 0 47 15 73 53 89 40 18 41 18 82 1z m1119 -80 l39 -21 -6
-80 c-3 -44 -10 -91 -14 -103 -8 -22 -12 -18 -41 45 -27 58 -72 177 -72 190 0
8 57 -11 94 -31z m-315 -96 c27 0 27 -25 -1 -44 -38 -27 -79 14 -57 57 11 19
13 19 24 4 7 -9 22 -17 34 -17z m491 -95 c20 -73 0 -144 -59 -199 -37 -36 -38
-31 -6 70 14 43 28 100 31 126 4 27 10 48 14 48 4 0 13 -20 20 -45z m-1101
-41 c-14 -13 -18 -13 -40 5 l-24 19 25 27 25 26 14 -31 c13 -27 13 -32 0 -46z
m-521 -183 c113 -66 212 -86 350 -68 67 9 77 1 48 -38 -11 -15 -28 -18 -107
-19 -107 -1 -180 15 -259 54 -59 30 -110 74 -110 96 0 20 4 18 78 -25z"/>
<path d="M3845 4120 c-5 -17 -12 -19 -49 -14 -78 11 -136 -41 -136 -120 0 -27
9 -46 35 -75 l35 -38 -21 -52 c-12 -28 -25 -51 -29 -51 -4 0 -23 16 -43 36
-34 36 -35 36 -61 19 -14 -10 -26 -21 -26 -26 0 -5 23 -31 51 -58 45 -43 50
-51 40 -69 -9 -18 -8 -23 8 -32 28 -15 37 -13 47 11 8 17 19 21 65 22 66 2
105 25 125 74 20 47 10 86 -33 134 l-34 38 20 45 c11 26 22 46 25 46 3 0 20
-13 39 -29 32 -29 33 -29 56 -12 20 15 22 21 12 39 -6 11 -25 30 -42 43 -25
17 -29 26 -24 47 10 40 -47 62 -60 22z m-52 -125 c-19 -40 -29 -44 -38 -15 -8
25 10 50 36 50 18 0 18 -2 2 -35z m5 -176 c18 -28 7 -55 -28 -68 -17 -5 -30
-7 -30 -3 0 12 35 92 40 92 3 0 11 -9 18 -21z"/>
<path d="M3621 5541 c-12 -12 -21 -26 -21 -31 0 -23 50 -60 79 -60 47 0 150
-42 218 -88 72 -49 123 -107 173 -195 37 -64 66 -81 96 -57 59 50 -95 267
-257 363 -64 37 -158 72 -229 83 -30 5 -42 2 -59 -15z"/>
<path d="M2980 5319 c-117 -20 -298 -88 -307 -114 -1 -6 1 -17 7 -25 8 -12 14
-12 47 4 139 67 272 91 468 83 l145 -5 0 23 c0 17 -7 24 -27 29 -51 12 -277
15 -333 5z"/>
<path d="M3875 5220 c-7 -12 12 -40 27 -40 13 0 6 43 -9 47 -6 2 -14 -1 -18
-7z"/>
<path d="M2514 5210 c-11 -4 -33 -22 -47 -40 -75 -88 17 -212 128 -174 45 15
72 45 81 91 16 81 -82 156 -162 123z"/>
<path d="M6279 4841 c-53 -54 -35 -138 36 -161 71 -24 145 24 145 93 0 58 -43
97 -105 97 -38 0 -52 -5 -76 -29z"/>
<path d="M9888 4862 l-87 -3 6 -164 c3 -91 3 -165 0 -165 -3 0 -22 11 -42 24
-47 32 -111 45 -175 35 -158 -25 -255 -153 -252 -332 3 -177 85 -288 234 -318
75 -15 158 8 205 58 34 36 35 35 47 -19 6 -28 7 -28 86 -28 l80 0 0 454 c0
250 -3 456 -7 458 -5 2 -47 2 -95 0z m-116 -437 l36 -25 1 -116 0 -116 -37
-40 c-42 -44 -95 -62 -144 -47 -70 20 -101 75 -102 179 0 131 47 190 154 190
42 0 64 -6 92 -25z"/>
<path d="M4960 4390 l0 -440 95 0 95 0 0 145 0 145 94 0 c286 0 429 114 414
329 -7 98 -46 162 -131 215 -54 33 -152 46 -364 46 l-203 0 0 -440z m447 265
c41 -24 67 -85 58 -134 -18 -98 -64 -125 -210 -126 l-100 0 -3 144 -3 144 113
-5 c88 -3 121 -8 145 -23z"/>
<path d="M7880 4390 l0 -440 95 0 95 0 0 160 0 160 58 0 57 -1 108 -159 108
-160 110 0 110 0 -33 46 c-18 26 -74 103 -124 173 l-91 126 48 18 c142 53 203
255 115 385 -73 108 -152 132 -453 132 l-203 0 0 -440z m446 268 c41 -22 58
-65 52 -130 -9 -88 -65 -118 -220 -118 l-88 0 0 136 0 136 113 -4 c79 -3 121
-9 143 -20z"/>
<path d="M7417 4590 c-67 -12 -150 -54 -186 -96 -154 -174 -94 -456 113 -533
71 -26 161 -34 242 -21 91 14 166 39 161 54 -2 6 -12 35 -22 64 -15 47 -20 53
-39 47 -128 -41 -209 -44 -280 -10 -39 19 -76 66 -76 98 0 16 17 17 219 17
l220 0 6 43 c8 51 -7 143 -31 189 -37 74 -112 130 -189 143 -76 12 -90 13
-138 5z m149 -164 c24 -24 34 -43 34 -65 l0 -31 -135 0 c-125 0 -135 1 -135
19 0 26 41 83 70 98 14 7 49 13 79 13 47 0 57 -4 87 -34z"/>
<path d="M8865 4585 c-68 -11 -165 -40 -165 -50 0 -2 10 -29 22 -60 16 -44 25
-54 37 -49 38 16 169 34 210 29 55 -8 101 -50 101 -93 l0 -29 -107 -6 c-144
-7 -207 -27 -259 -82 -64 -66 -70 -147 -17 -228 65 -102 266 -110 370 -15 l22
20 6 -36 7 -36 79 0 79 0 0 228 c0 219 -1 229 -24 279 -51 110 -183 156 -361
128z m205 -413 c0 -53 -20 -81 -73 -101 -105 -40 -199 21 -156 100 17 32 67
48 152 49 l77 0 0 -48z"/>
<path d="M6025 4576 c-16 -8 -46 -30 -65 -50 l-34 -36 -11 42 -10 43 -77 3
-78 3 0 -316 0 -315 89 0 90 0 3 204 3 205 29 30 c37 39 83 54 148 49 l52 -3
17 68 17 68 -25 10 c-35 13 -113 11 -148 -5z"/>
<path d="M6765 4576 c-67 -21 -100 -43 -149 -97 -106 -117 -106 -320 -1 -437
78 -86 199 -124 335 -103 59 9 119 30 139 47 1 1 -7 32 -18 67 l-22 64 -40
-20 c-55 -27 -154 -28 -200 -1 -68 40 -101 131 -81 222 22 94 72 132 177 132
43 0 81 -6 99 -15 15 -8 31 -15 35 -15 3 0 17 27 30 61 28 69 28 69 -53 94
-60 18 -195 19 -251 1z"/>
<path d="M10207 4571 c-92 -24 -95 -29 -72 -96 12 -36 23 -54 31 -51 77 30
211 39 260 18 33 -14 54 -47 54 -86 0 -22 -4 -23 -107 -29 -221 -12 -306 -71
-304 -210 1 -99 51 -154 161 -178 70 -15 143 1 209 46 28 18 52 30 55 27 3 -3
6 -18 6 -34 l0 -28 80 0 80 0 0 233 c0 204 -3 237 -19 273 -23 52 -78 97 -143
118 -66 21 -203 20 -291 -3z m273 -400 c0 -46 -3 -52 -37 -78 -31 -24 -46 -28
-101 -28 -58 0 -66 3 -85 27 -17 22 -18 33 -11 60 14 48 60 68 157 68 l77 0 0
-49z"/>
<path d="M11060 4579 c-14 -6 -43 -28 -66 -50 l-41 -40 -7 40 -6 41 -86 0 -86
0 6 -31 c3 -17 6 -157 6 -310 l0 -279 90 0 90 0 0 200 0 199 31 36 c36 41 93
60 155 50 l43 -6 11 43 c6 24 15 56 20 71 8 24 6 29 -16 37 -32 13 -111 12
-144 -1z"/>
<path d="M6266 4564 c-2 -6 -5 -147 -6 -313 l-1 -301 91 0 90 0 0 316 0 315
-85 -2 c-52 -2 -86 -8 -89 -15z"/>
</g>
</svg>
